<svg xmlns="http://www.w3.org/2000/svg" width="89" height="90" viewBox="0 0 89 90">
  <g id="Group_470" data-name="Group 470" transform="translate(-746 -1380)">
    <path id="Rectangle_898" data-name="Rectangle 898" d="M0,0H69A20,20,0,0,1,89,20V90a0,0,0,0,1,0,0H20A20,20,0,0,1,0,70V0A0,0,0,0,1,0,0Z" transform="translate(746 1380)" fill="#f0f5ff"/>
    <g id="target" transform="translate(762 1396)">
      <path id="Path_696" data-name="Path 696" d="M50.126,13.928a2.042,2.042,0,0,0,1.443-.6l5.654-5.654a1.244,1.244,0,0,0-.8-2.119l-3.009-.189,1.963-1.963a.844.844,0,1,0-1.193-1.193L52.22,4.176l-.189-3.009a1.244,1.244,0,0,0-2.119-.8L44.258,6.02a2.042,2.042,0,0,0-.594,1.571l.194,3.1A26.62,26.62,0,0,0,6.923,48.879a.844.844,0,0,0,1.248-1.135,24.942,24.942,0,0,1,35.482-35L39.8,16.591A19.519,19.519,0,0,0,9.247,39.9h0a19.532,19.532,0,0,0,36.495-4.957A.844.844,0,1,0,44.09,34.6a17.844,17.844,0,0,1-33.344,4.526h0a17.612,17.612,0,0,1-1.975-8.155,17.826,17.826,0,0,1,29.84-13.188L34.8,21.6a12.462,12.462,0,1,0,1.193,1.193L39.8,18.977a17.768,17.768,0,0,1,4.656,11.892.844.844,0,0,0,.843.839h0a.844.844,0,0,0,.839-.848A19.451,19.451,0,0,0,41,17.784l3.849-3.849a24.942,24.942,0,0,1-33.91,36.421.844.844,0,0,0-1.062,1.311A26.617,26.617,0,0,0,53.232,30.973,26.4,26.4,0,0,0,48,15.119q-.532-.716-1.105-1.39c3.307.208,3.129.2,3.233.2ZM37.376,30.973A10.773,10.773,0,1,1,33.6,22.795l-3.839,3.839a5.371,5.371,0,1,0,1.193,1.193l3.839-3.839A10.714,10.714,0,0,1,37.376,30.973Zm-11.357.6a.844.844,0,0,0,1.193,0l2.529-2.529a3.68,3.68,0,1,1-1.193-1.193L26.02,30.376a.844.844,0,0,0,0,1.193ZM45.348,7.485a.353.353,0,0,1,.1-.272l4.958-4.958.22,3.511-5.071,5.071Zm1.4,4.545,5.071-5.071,3.511.22-4.958,4.958a.353.353,0,0,1-.272.1Z" transform="translate(0 -0.002)" fill="#00366c"/>
    </g>
  </g>
</svg>
